:SAMPLES-PER-SECOND 30
:FULLY-SPECIFIED
:DEGREES
203
root  61.8843 25.0132 0.662076 125.192 -85.5106 -145.441
RightUpLeg  -58.8621 -10.8031 4.58812
RightLeg  81.7279 -0.756274 -9.39665
RightFoot  -0.885146 0.226047 -2.53414
RightToes  0.000482159 0.542163 -0.142577
Spine  50.9798 -2.46018 7.37293
Spine1  -4.99282 -0.0381519 -1.3337
HEad  -16.6479 5.27298 -6.03293
LeftShoulder1  9.14616 -15.1462 -42.614
LeftArm  0.659379 3.95423 -22.6138
LeftForeArm  32.6629 -24.6705 -3.5623
LeftHand  -0.25398 0.0180481 5.50724
RightShoulder  4.37029 9.24507 28.2801
RightArm  -2.41095 -8.29225 40.2371
RightForeArm  5.49669 28.9227 5.97751
RightHand  -1.75219 5.3577 -19.1331
LeftUpLeg  -59.6053 7.0968 -0.215305
LeftLeg  75.4565 2.19922 10.9514
LeftFoot  1.9768 -0.537772 4.50159
LeftToes  1.06246e-005 4.65855e-005 -8.18503e-006
204
root  61.7409 25.1055 0.67926 125.067 -85.5519 -143.919
RightUpLeg  -59.9544 -10.9875 4.87078
RightLeg  81.6336 -0.757603 -9.26964
RightFoot  -1.37512 0.234003 -2.78861
RightToes  0.000482159 0.542163 -0.142577
Spine  52.7936 -2.40557 7.25289
Spine1  -4.93637 -0.0311354 -0.721645
HEad  -19.5189 5.10855 -5.98598
LeftShoulder1  9.11917 -15.2394 -42.2537
LeftArm  -0.585799 3.6072 -22.6578
LeftForeArm  33.6907 -26.2671 -3.84947
LeftHand  -0.25398 0.0180481 5.50724
RightShoulder  4.35749 9.46583 27.5772
RightArm  -3.49474 -9.40777 39.7204
RightForeArm  6.11856 31.5627 6.59768
RightHand  -1.91113 5.85417 -19.9307
LeftUpLeg  -60.8075 7.40486 -0.696692
LeftLeg  75.3981 2.3307 11.4635
LeftFoot  1.68781 -0.603616 5.19255
LeftToes  1.06246e-005 4.65855e-005 -8.18503e-006
205
root  61.5709 25.2164 0.683752 126.245 -85.6489 -143.454
RightUpLeg  -61.1493 -11.111 5.14192
RightLeg  81.5052 -0.760659 -9.1138
RightFoot  -2.3153 0.226028 -3.06318
RightToes  0.000482159 0.542163 -0.142577
Spine  54.933 -2.29645 7.03184
Spine1  -4.92465 -0.0176329 -0.115513
HEad  -22.9296 4.8725 -5.84803
LeftShoulder1  9.09717 -15.4346 -41.6772
LeftArm  -2.18666 3.47685 -22.666
LeftForeArm  34.7926 -28.4977 -4.27629
LeftHand  -0.25398 0.0180481 5.50724
RightShoulder  4.37609 9.72888 27.0309
RightArm  -4.53446 -10.4784 38.9275
RightForeArm  7.16017 34.3701 7.27872
RightHand  -2.0424 6.27583 -20.5135
LeftUpLeg  -62.1438 7.63184 -1.17285
LeftLeg  75.2603 2.34065 11.3818
LeftFoot  1.29916 -0.626004 5.57652
LeftToes  1.06246e-005 4.65855e-005 -8.18503e-006
206
root  61.3616 25.3678 0.674552 131.225 -85.7711 -146.028
RightUpLeg  -62.8748 -11.0547 5.44615
RightLeg  81.2607 -0.785225 -8.9859
RightFoot  -4.16011 0.177317 -3.27019
RightToes  0.000482159 0.542163 -0.142577
Spine  56.8395 -2.10755 6.70439
Spine1  -4.97781 0.0425556 0.147411
HEad  -26.5565 4.48201 -5.54562
LeftShoulder1  9.12689 -15.7126 -41.1691
LeftArm  -4.09963 3.72156 -22.2898
LeftForeArm  36.1967 -31.5339 -4.89342
LeftHand  -0.25398 0.0180481 5.50724
RightShoulder  4.41197 9.93856 26.7727
RightArm  -5.49752 -11.3246 37.9462
RightForeArm  8.41962 36.7628 7.87762
RightHand  -2.20794 6.83951 -21.1377
LeftUpLeg  -64.1214 7.9994 -1.87297
LeftLeg  75.0289 2.35629 11.2436
LeftFoot  0.734288 -0.608958 5.71029
LeftToes  1.06246e-005 4.65855e-005 -8.18503e-006
207
root  61.0745 25.5847 0.663657 137.851 -85.8216 -149.507
RightUpLeg  -65.0725 -10.8244 5.86208
RightLeg  80.8571 -0.851065 -8.98827
RightFoot  -6.37798 0.0984504 -3.25603
RightToes  0.000482159 0.542163 -0.142577
Spine  58.3854 -2.02259 6.45532
Spine1  -5.23545 0.103625 -0.0445688
HEad  -30.0669 4.00706 -5.13092
LeftShoulder1  9.26164 -16.0148 -41.1247
LeftArm  -6.16039 4.38923 -21.265
LeftForeArm  37.8722 -35.1682 -5.68668
LeftHand  -0.25398 0.0180481 5.50724
RightShoulder  4.43378 10.082 26.5795
RightArm  -6.42013 -11.8544 37.1414
RightForeArm  9.57206 38.2558 8.24992
RightHand  -2.40447 7.47363 -21.8654
LeftUpLeg  -66.7076 8.47561 -2.65852
LeftLeg  74.8922 2.41951 11.3886
LeftFoot  -0.232653 -0.530231 5.45711
LeftToes  1.06246e-005 4.65855e-005 -8.18503e-006
208
root  60.6715 25.9046 0.65637 141.861 -85.7689 -150.159
RightUpLeg  -67.1708 -10.4999 6.40359
RightLeg  80.2386 -0.969014 -9.11016
RightFoot  -7.87447 0.0420687 -3.15346
RightToes  0.000482159 0.542163 -0.142577
Spine  59.8745 -2.16394 6.45375
Spine1  -5.92169 0.154609 -0.504914
HEad  -33.1781 3.54493 -4.7491
LeftShoulder1  9.47434 -16.3359 -41.4084
LeftArm  -8.19566 5.33596 -20.0584
LeftForeArm  39.4736 -38.5952 -6.49892
LeftHand  -0.25398 0.0180481 5.50724
RightShoulder  4.43769 10.2364 26.2278
RightArm  -7.36356 -11.9387 36.7474
RightForeArm  10.1112 38.4498 8.27595
RightHand  -2.59666 8.02416 -22.6181
LeftUpLeg  -69.2099 8.86948 -3.21607
LeftLeg  74.8393 2.51934 11.7532
LeftFoot  -1.68223 -0.407157 4.93306
LeftToes  1.06246e-005 4.65855e-005 -8.18503e-006
209
root  60.1352 26.3675 0.641702 143.023 -85.6887 -148.003
RightUpLeg  -68.8129 -10.1394 7.00441
RightLeg  79.317 -1.15515 -9.32113
RightFoot  -8.42915 0.0293146 -3.39491
RightToes  0.000482159 0.542163 -0.142577
Spine  61.31 -2.37884 6.6277
Spine1  -6.97097 0.267943 -1.02301
HEad  -35.729 3.04662 -4.43892
LeftShoulder1  9.66884 -16.6928 -41.5182
LeftArm  -10.0693 6.11748 -19.459
LeftForeArm  40.6239 -40.9054 -7.08902
LeftHand  -0.25398 0.0180481 5.50724
RightShoulder  4.45041 10.5095 25.6668
RightArm  -8.3899 -11.358 36.7715
RightForeArm  9.512 37.0315 7.89202
RightHand  -2.82617 8.63394 -23.5092
LeftUpLeg  -71.1221 8.99458 -3.5254
LeftLeg  74.4983 2.67894 12.0928
LeftFoot  -3.28171 -0.316537 4.78278
LeftToes  1.06246e-005 4.65855e-005 -8.18503e-006
210
root  59.4818 26.9929 0.61286 144.377 -85.6118 -145.895
RightUpLeg  -70.0238 -9.74731 7.5791
RightLeg  77.9536 -1.42737 -9.54036
RightFoot  -8.86183 0.0258769 -3.97314
RightToes  0.000482159 0.542163 -0.142577
Spine  62.195 -2.42533 6.80461
Spine1  -7.97746 0.505832 -1.56531
HEad  -37.7707 2.42708 -4.08795
LeftShoulder1  9.80509 -17.0498 -41.357
LeftArm  -11.6123 6.12742 -19.5664
LeftForeArm  41.1918 -41.856 -7.34112
LeftHand  -0.25398 0.0180481 5.50724
RightShoulder  4.47261 10.9102 24.9037
RightArm  -9.37812 -9.73671 37.1633
RightForeArm  7.72561 33.9463 7.13383
RightHand  -3.1244 9.41707 -24.5729
LeftUpLeg  -72.4827 8.75162 -3.72892
LeftLeg  73.5215 2.96812 12.3442
LeftFoot  -4.62684 -0.286693 5.36657
LeftToes  1.06246e-005 4.65855e-005 -8.18503e-006
211
root  58.7639 27.7704 0.582626 146.596 -85.4962 -144.604
RightUpLeg  -70.632 -9.36171 8.04554
RightLeg  76.0091 -1.77256 -9.56007
RightFoot  -9.71078 -0.00588435 -4.15524
RightToes  0.000482159 0.542163 -0.142577
Spine  62.3256 -2.28335 6.95764
Spine1  -8.57321 0.840048 -2.18081
HEad  -39.4599 1.76567 -3.6043
LeftShoulder1  9.92656 -17.3587 -41.2377
LeftArm  -12.6362 5.12512 -19.8551
LeftForeArm  41.3282 -41.9861 -7.37333
LeftHand  -0.25398 0.0180481 5.50724
RightShoulder  4.4816 11.3041 24.0981
RightArm  -9.97225 -6.62248 37.6609
RightForeArm  5.46483 29.6266 6.14807
RightHand  -3.38281 10.0974 -25.4039
LeftUpLeg  -73.244 8.20041 -3.70484
LeftLeg  71.9133 3.43371 12.6364
LeftFoot  -5.7195 -0.262955 6.04696
LeftToes  1.06246e-005 4.65855e-005 -8.18503e-006
212
root  58.0379 28.6639 0.565035 148.705 -85.3826 -143.627
RightUpLeg  -70.3224 -9.05814 8.25003
RightLeg  73.4722 -2.15084 -9.2773
RightFoot  -10.5795 -0.0477628 -3.54678
RightToes  0.000482159 0.542163 -0.142577
Spine  61.9753 -2.05819 7.03877
Spine1  -8.73624 1.17485 -2.79063
HEad  -40.8083 1.23685 -3.07575
LeftShoulder1  10.0531 -17.6315 -41.2207
LeftArm  -13.0927 3.58876 -20.1067
LeftForeArm  41.2308 -42.0331 -7.39358
LeftHand  -0.25398 0.0180481 5.50724
RightShoulder  4.48624 11.5538 23.6005
RightArm  -10.1617 -1.95769 37.7761
RightForeArm  3.90165 25.032 5.17832
RightHand  -3.49871 10.478 -25.6332
LeftUpLeg  -73.0908 7.50512 -3.35301
LeftLeg  69.8253 4.07294 13.008
LeftFoot  -6.7574 -0.199742 5.987
LeftToes  1.06246e-005 4.65855e-005 -8.18503e-006
213
root  57.3278 29.6426 0.56646 149.527 -85.3586 -142.172
RightUpLeg  -68.9041 -8.92818 8.18007
RightLeg  70.4024 -2.57859 -8.90866
RightFoot  -10.9887 -0.0660016 -2.77573
RightToes  0.000482159 0.542163 -0.142577
Spine  61.5228 -1.86959 7.02823
Spine1  -8.71272 1.42387 -3.24204
HEad  -41.637 0.899292 -2.72553
LeftShoulder1  10.1454 -17.8798 -41.1054
LeftArm  -13.1708 2.33574 -20.5498
LeftForeArm  40.9633 -42.427 -7.5313
LeftHand  -0.25398 0.0180481 5.50724
RightShoulder  4.5066 11.6519 23.5388
RightArm  -11.0433 3.54565 37.3418
RightForeArm  4.02793 21.3855 4.60826
RightHand  -3.55273 10.8073 -25.5083
LeftUpLeg  -71.7701 6.75287 -2.7892
LeftLeg  67.2486 4.8539 13.2932
LeftFoot  -7.63835 -0.12527 5.29612
LeftToes  1.06246e-005 4.65855e-005 -8.18503e-006
214
root  56.6134 30.6832 0.584759 148.63 -85.4796 -139.638
RightUpLeg  -66.6101 -9.04899 7.9966
RightLeg  66.8625 -3.0905 -8.6199
RightFoot  -11.0462 -0.068425 -2.43444
RightToes  0.000482159 0.542163 -0.142577
Spine  60.9107 -1.75307 6.97461
Spine1  -8.6483 1.53089 -3.39931
HEad  -41.8232 0.678712 -2.6828
LeftShoulder1  10.1855 -18.0246 -40.9787
LeftArm  -13.1502 1.81304 -21.2375
LeftForeArm  40.5281 -43.1794 -7.79448
LeftHand  -0.25398 0.0180481 5.50724
RightShoulder  4.51345 11.6628 23.5639
RightArm  -13.2644 8.7972 36.8188
RightForeArm  4.93723 19.83 4.58393
RightHand  -3.64298 11.2017 -25.535
LeftUpLeg  -69.5333 5.93591 -2.2393
LeftLeg  64.1027 5.73123 13.3192
LeftFoot  -8.06272 -0.0848802 4.66843
LeftToes  1.06246e-005 4.65855e-005 -8.18503e-006
215
root  55.8666 31.7594 0.618386 146.139 -85.6623 -135.8
RightUpLeg  -63.789 -9.44704 7.8605
RightLeg  62.8687 -3.58955 -8.17016
RightFoot  -10.9727 -0.0673751 -2.13881
RightToes  0.000482159 0.542163 -0.142577
Spine  59.9264 -1.69608 6.96448
Spine1  -8.50414 1.53896 -3.3644
HEad  -41.4802 0.497936 -2.80285
LeftShoulder1  10.1993 -17.9939 -41.103
LeftArm  -13.1706 1.92562 -21.9923
LeftForeArm  39.9385 -43.9291 -8.07283
LeftHand  -0.25398 0.0180481 5.50724
RightShoulder  4.46788 11.6176 23.34
RightArm  -14.706 13.1144 36.7261
RightForeArm  3.33418 21.0463 4.65278
RightHand  -3.71648 11.3483 -25.8092
LeftUpLeg  -66.8123 5.19662 -1.79842
LeftLeg  60.4767 6.63329 13.0448
LeftFoot  -8.05388 -0.075021 4.30475
LeftToes  1.06246e-005 4.65855e-005 -8.18503e-006
216
root  55.0861 32.836 0.668155 143.437 -85.7755 -131.972
RightUpLeg  -60.6041 -10.0859 7.78494
RightLeg  58.4881 -3.90547 -7.33863
RightFoot  -10.6842 -0.0640177 -1.47956
RightToes  0.000482159 0.542163 -0.142577
Spine  58.5593 -1.63636 6.98416
Spine1  -8.28625 1.57804 -3.42222
HEad  -40.804 0.327144 -2.82465
LeftShoulder1  10.2109 -17.872 -41.4092
LeftArm  -13.1414 2.47741 -22.8105
LeftForeArm  39.1243 -44.1265 -8.18986
LeftHand  -0.25398 0.0180481 5.50724
RightShoulder  4.39673 11.5352 23.0117
RightArm  -15.28 16.3837 36.84
RightForeArm  0.16902 24.6495 5.24399
RightHand  -3.7112 11.1186 -26.1132
LeftUpLeg  -63.7674 4.80093 -1.49729
LeftLeg  56.573 7.46622 12.4941
LeftFoot  -7.96169 -0.0673686 3.90663
LeftToes  1.06246e-005 4.65855e-005 -8.18503e-006
217
root  54.2824 33.874 0.737422 141.435 -85.8163 -129.232
RightUpLeg  -57.0354 -10.9567 7.71057
RightLeg  53.9253 -3.99467 -6.28639
RightFoot  -10.2042 -0.0599291 -0.906937
RightToes  0.000482159 0.542163 -0.142577
Spine  57.0484 -1.5294 6.99749
Spine1  -8.10871 1.72848 -3.66495
HEad  -39.7959 0.158753 -2.72826
LeftShoulder1  10.2587 -17.8169 -41.7347
LeftArm  -12.8147 3.47673 -23.7121
LeftForeArm  37.9269 -43.4059 -8.03216
LeftHand  -0.25398 0.0180481 5.50724
RightShoulder  4.35561 11.4622 22.8724
RightArm  -15.6876 18.6371 36.6984
RightForeArm  -1.38522 29.7085 6.54565
RightHand  -3.63995 10.7313 -26.2178
LeftUpLeg  -60.3181 4.76865 -1.34852
LeftLeg  52.5542 8.16867 11.733
LeftFoot  -7.99016 -0.0512045 3.39339
LeftToes  1.06246e-005 4.65855e-005 -8.18503e-006
